<svg data-v-423bf9ae="" xmlns="http://www.w3.org/2000/svg" viewBox="0 0 448 90" class="iconLeftSlogan"><!----><!----><!----><g data-v-423bf9ae="" id="2677a0a5-81a1-4c9f-9ff1-eb5c900edf7b" fill="white" transform="matrix(5.830903811703725,0,0,5.830903811703725,127.17967420154304,-12.6530621930969)"><path d="M2.62 12.29L2.62 4.28L0.24 4.28L0.24 2.69L6.79 2.69L6.79 4.28L4.41 4.28L4.41 12.29L2.62 12.29ZM9.06 12.46L9.06 12.46Q8.37 12.46 7.79 11.99L7.79 11.99L7.79 11.99Q7.21 11.52 7.21 10.39L7.21 10.39L7.21 10.39Q7.21 8.99 8.16 8.40L8.16 8.40L8.16 8.40Q9.11 7.81 10.86 7.81L10.86 7.81L10.86 7.04L10.86 7.04Q10.86 6.61 10.70 6.37L10.70 6.37L10.70 6.37Q10.54 6.13 10.09 6.13L10.09 6.13L10.09 6.13Q9.63 6.13 9.42 6.36L9.42 6.36L9.42 6.36Q9.21 6.59 9.21 6.90L9.21 6.90L9.21 7.11L7.57 7.11L7.57 7.11Q7.56 7.03 7.56 6.80L7.56 6.80L7.56 6.80Q7.56 5.88 8.24 5.32L8.24 5.32L8.24 5.32Q8.92 4.76 10.05 4.76L10.05 4.76L10.05 4.76Q11.31 4.76 11.94 5.32L11.94 5.32L11.94 5.32Q12.56 5.88 12.56 6.93L12.56 6.93L12.56 10.56L12.56 10.56Q12.56 10.81 12.67 10.93L12.67 10.93L12.67 10.93Q12.78 11.05 12.95 11.05L12.95 11.05L13.29 11.05L13.29 12.24L13.29 12.24Q12.87 12.46 12.29 12.46L12.29 12.46L12.29 12.46Q11.80 12.46 11.46 12.20L11.46 12.20L11.46 12.20Q11.12 11.94 10.99 11.49L10.99 11.49L10.92 11.49L10.92 11.49Q10.57 11.98 10.16 12.22L10.16 12.22L10.16 12.22Q9.74 12.46 9.06 12.46L9.06 12.46ZM9.76 11.06L9.76 11.06Q10.32 11.06 10.59 10.61L10.59 10.61L10.59 10.61Q10.86 10.16 10.86 9.45L10.86 9.45L10.86 9.03L10.86 9.03Q10.01 9.03 9.47 9.30L9.47 9.30L9.47 9.30Q8.93 9.58 8.93 10.23L8.93 10.23L8.93 10.23Q8.93 10.63 9.13 10.84L9.13 10.84L9.13 10.84Q9.34 11.06 9.76 11.06L9.76 11.06ZM14.17 12.29L14.17 4.93L15.57 4.93L15.74 5.84L15.82 5.84L15.82 5.84Q16.14 5.36 16.60 5.06L16.60 5.06L16.60 5.06Q17.07 4.76 17.68 4.76L17.68 4.76L17.68 4.76Q18.59 4.76 19.12 5.33L19.12 5.33L19.12 5.33Q19.64 5.89 19.64 7.13L19.64 7.13L19.64 12.29L17.96 12.29L17.96 7.59L17.96 7.59Q17.96 6.90 17.72 6.59L17.72 6.59L17.72 6.59Q17.47 6.29 17.00 6.29L17.00 6.29L17.00 6.29Q16.51 6.29 16.18 6.71L16.18 6.71L16.18 6.71Q15.85 7.14 15.85 7.76L15.85 7.76L15.85 12.29L14.17 12.29ZM24.71 12.46L24.71 12.46Q22.86 12.46 21.88 11.22L21.88 11.22L21.88 11.22Q20.89 9.98 20.89 7.49L20.89 7.49L20.89 7.49Q20.89 5.00 21.88 3.76L21.88 3.76L21.88 3.76Q22.86 2.52 24.71 2.52L24.71 2.52L24.71 2.52Q26.29 2.52 27.27 3.46L27.27 3.46L27.27 3.46Q28.24 4.40 28.24 6.26L28.24 6.26L26.40 6.26L26.40 6.26Q26.40 5.18 25.95 4.62L25.95 4.62L25.95 4.62Q25.49 4.06 24.71 4.06L24.71 4.06L24.71 4.06Q23.73 4.06 23.23 4.86L23.23 4.86L23.23 4.86Q22.74 5.67 22.74 7.14L22.74 7.14L22.74 7.84L22.74 7.84Q22.74 9.31 23.25 10.12L23.25 10.12L23.25 10.12Q23.76 10.92 24.77 10.92L24.77 10.92L24.77 10.92Q25.56 10.92 26.03 10.37L26.03 10.37L26.03 10.37Q26.49 9.81 26.49 8.74L26.49 8.74L28.24 8.74L28.24 8.74Q28.24 10.56 27.27 11.51L27.27 11.51L27.27 11.51Q26.31 12.46 24.71 12.46L24.71 12.46ZM32.21 12.46L32.21 12.46Q30.73 12.46 30.00 11.52L30.00 11.52L30.00 11.52Q29.27 10.58 29.27 8.61L29.27 8.61L29.27 8.61Q29.27 6.64 30.00 5.70L30.00 5.70L30.00 5.70Q30.73 4.76 32.21 4.76L32.21 4.76L32.21 4.76Q33.70 4.76 34.43 5.70L34.43 5.70L34.43 5.70Q35.15 6.64 35.15 8.61L35.15 8.61L35.15 8.61Q35.15 10.58 34.43 11.52L34.43 11.52L34.43 11.52Q33.70 12.46 32.21 12.46L32.21 12.46ZM32.21 11.05L32.21 11.05Q32.84 11.05 33.12 10.51L33.12 10.51L33.12 10.51Q33.40 9.97 33.40 8.88L33.40 8.88L33.40 8.34L33.40 8.34Q33.40 7.25 33.12 6.71L33.12 6.71L33.12 6.71Q32.84 6.17 32.21 6.17L32.21 6.17L32.21 6.17Q31.58 6.17 31.30 6.71L31.30 6.71L31.30 6.71Q31.02 7.25 31.02 8.34L31.02 8.34L31.02 8.88L31.02 8.88Q31.02 9.97 31.30 10.51L31.30 10.51L31.30 10.51Q31.58 11.05 32.21 11.05L32.21 11.05ZM38.65 12.46L38.65 12.46Q37.53 12.46 36.91 11.50L36.91 11.50L36.91 11.50Q36.29 10.54 36.29 8.60L36.29 8.60L36.29 8.60Q36.29 6.68 36.91 5.72L36.91 5.72L36.91 5.72Q37.53 4.76 38.57 4.76L38.57 4.76L38.57 4.76Q39.13 4.76 39.57 5.00L39.57 5.00L39.57 5.00Q40.01 5.25 40.21 5.68L40.21 5.68L40.28 5.68L40.28 2.17L41.96 2.17L41.96 12.29L40.56 12.29L40.39 11.38L40.32 11.38L40.32 11.38Q40.05 11.91 39.62 12.19L39.62 12.19L39.62 12.19Q39.19 12.46 38.65 12.46L38.65 12.46ZM39.16 10.93L39.16 10.93Q39.75 10.93 40.01 10.42L40.01 10.42L40.01 10.42Q40.28 9.91 40.28 8.88L40.28 8.88L40.28 8.37L40.28 8.37Q40.28 7.34 40.01 6.81L40.01 6.81L40.01 6.81Q39.75 6.29 39.16 6.29L39.16 6.29L39.16 6.29Q38.57 6.29 38.30 6.80L38.30 6.80L38.30 6.80Q38.04 7.31 38.04 8.34L38.04 8.34L38.04 8.88L38.04 8.88Q38.04 9.91 38.30 10.42L38.30 10.42L38.30 10.42Q38.57 10.93 39.16 10.93L39.16 10.93ZM46.05 12.46L46.05 12.46Q44.60 12.46 43.88 11.52L43.88 11.52L43.88 11.52Q43.16 10.57 43.16 8.61L43.16 8.61L43.16 8.61Q43.16 4.76 45.99 4.76L45.99 4.76L45.99 4.76Q47.33 4.76 47.99 5.70L47.99 5.70L47.99 5.70Q48.65 6.64 48.65 8.61L48.65 8.61L48.65 9.03L44.91 9.03L44.91 9.03Q44.93 10.07 45.19 10.58L45.19 10.58L45.19 10.58Q45.44 11.09 46.05 11.09L46.05 11.09L46.05 11.09Q46.48 11.09 46.73 10.72L46.73 10.72L46.73 10.72Q46.98 10.35 46.98 9.69L46.98 9.69L48.65 9.69L48.65 9.69Q48.65 11.06 47.94 11.76L47.94 11.76L47.94 11.76Q47.22 12.46 46.05 12.46L46.05 12.46ZM44.93 7.81L46.89 7.81L46.89 7.81Q46.89 6.13 45.99 6.13L45.99 6.13L45.99 6.13Q45.47 6.13 45.22 6.56L45.22 6.56L45.22 6.56Q44.97 6.99 44.93 7.81L44.93 7.81ZM52.25 12.46L52.25 12.46Q50.99 12.46 50.28 11.82L50.28 11.82L50.28 11.82Q49.57 11.19 49.57 10.12L49.57 10.12L49.59 9.95L51.30 9.95L51.30 10.05L51.30 10.05Q51.31 10.60 51.60 10.84L51.60 10.84L51.60 10.84Q51.90 11.09 52.30 11.09L52.30 11.09L52.30 11.09Q52.70 11.09 52.99 10.90L52.99 10.90L52.99 10.90Q53.28 10.71 53.28 10.29L53.28 10.29L53.28 10.29Q53.28 9.84 52.95 9.64L52.95 9.64L52.95 9.64Q52.61 9.44 51.88 9.24L51.88 9.24L51.88 9.24Q51.18 9.04 50.75 8.85L50.75 8.85L50.75 8.85Q50.32 8.65 50.00 8.20L50.00 8.20L50.00 8.20Q49.69 7.76 49.69 7L49.69 7L49.69 7Q49.69 5.92 50.42 5.34L50.42 5.34L50.42 5.34Q51.16 4.76 52.32 4.76L52.32 4.76L52.32 4.76Q53.40 4.76 54.10 5.30L54.10 5.30L54.10 5.30Q54.81 5.84 54.81 6.76L54.81 6.76L54.80 7.08L53.09 7.08L53.09 7.06L53.09 7.06Q53.07 6.13 52.26 6.13L52.26 6.13L52.26 6.13Q51.87 6.13 51.63 6.33L51.63 6.33L51.63 6.33Q51.39 6.52 51.39 6.86L51.39 6.86L51.39 6.86Q51.39 7.25 51.72 7.43L51.72 7.43L51.72 7.43Q52.04 7.60 52.72 7.78L52.72 7.78L52.72 7.78Q53.44 7.97 53.89 8.17L53.89 8.17L53.89 8.17Q54.33 8.37 54.66 8.83L54.66 8.83L54.66 8.83Q54.99 9.28 54.99 10.08L54.99 10.08L54.99 10.08Q54.99 12.46 52.25 12.46L52.25 12.46Z"></path></g><!----><g data-v-423bf9ae="" id="08337141-5c11-4b71-bd7e-122960a79535" transform="matrix(1.20643446441337,0,0,1.20643446441337,-5.321723220668503,-14.621717855546791)" stroke="none" fill="white"><path d="M5 20.1l7.4-7.4 26.1 26.1 7.5 7.4-7.5 7.4-26.1 26.1L5 72.3l26.1-26.1L5 20.1zm90 67.2V75.7H48.8v11.6H95z"></path></g><!----><g data-v-423bf9ae="" id="94ceaedd-3b5a-462f-9749-a447a22ec650" fill="white" transform="matrix(0.8022919540275387,0,0,0.8022919540275387,127.60030328976723,55.442982885782946)"><path d="M1.22 15.68L1.22 5.88L2.39 5.88L2.39 14.59L7.52 14.59L7.52 15.68L1.22 15.68ZM16.88 15.68L16.88 5.88L22.82 5.88L22.82 6.97L18.06 6.97L18.06 10.22L22.74 10.22L22.74 11.31L18.06 11.31L18.06 14.59L22.90 14.59L22.90 15.68L16.88 15.68ZM38.23 15.68L37.52 13.24L33.32 13.24L32.61 15.68L31.35 15.68L34.31 5.88L36.53 5.88L39.49 15.68L38.23 15.68ZM35.50 6.38L35.34 6.38L33.64 12.15L37.20 12.15L35.50 6.38ZM54.05 12.15L54.05 15.68L52.88 15.68L52.88 12.40L52.88 12.40Q52.88 12.04 52.71 11.84L52.71 11.84L52.71 11.84Q52.54 11.65 52.12 11.65L52.12 11.65L49.07 11.65L49.07 15.68L47.89 15.68L47.89 5.88L51.39 5.88L51.39 5.88Q52.15 5.88 52.71 6.10L52.71 6.10L52.71 6.10Q53.27 6.31 53.64 6.68L53.64 6.68L53.64 6.68Q54.01 7.04 54.20 7.53L54.20 7.53L54.20 7.53Q54.39 8.01 54.39 8.54L54.39 8.54L54.39 8.96L54.39 8.96Q54.39 9.51 54.09 10.05L54.09 10.05L54.09 10.05Q53.79 10.60 53.16 10.89L53.16 10.89L53.16 11.06L53.16 11.06Q53.58 11.13 53.82 11.40L53.82 11.40L53.82 11.40Q54.05 11.66 54.05 12.15L54.05 12.15ZM49.07 6.97L49.07 10.56L51.25 10.56L51.25 10.56Q52.25 10.56 52.73 10.13L52.73 10.13L52.73 10.13Q53.21 9.70 53.21 8.88L53.21 8.88L53.21 8.62L53.21 8.62Q53.21 7.88 52.73 7.43L52.73 7.43L52.73 7.43Q52.25 6.97 51.25 6.97L51.25 6.97L49.07 6.97ZM65.65 5.88L68.47 15.18L68.64 15.18L68.64 5.88L69.82 5.88L69.82 15.68L67.47 15.68L64.64 6.38L64.47 6.38L64.47 15.68L63.29 15.68L63.29 5.88L65.65 5.88ZM96.71 14.90L96.71 14.90L96.71 14.90Q96.71 14.49 97.00 14.20L97.00 14.20L97.00 14.20Q97.29 13.92 97.69 13.92L97.69 13.92L97.69 13.92Q98.10 13.92 98.39 14.20L98.39 14.20L98.39 14.20Q98.67 14.49 98.67 14.90L98.67 14.90L98.67 16.27L98.67 16.27Q98.67 16.74 98.37 17.05L98.37 17.05L98.37 17.05Q98.07 17.36 97.59 17.36L97.59 17.36L96.88 17.36L96.88 16.60L97.54 16.60L97.54 16.60Q97.92 16.60 97.92 16.18L97.92 16.18L97.92 15.83L97.92 15.83Q97.80 15.88 97.68 15.88L97.68 15.88L97.68 15.88Q97.29 15.88 97.00 15.59L97.00 15.59L97.00 15.59Q96.71 15.30 96.71 14.90ZM128.88 14.78L128.88 14.78L128.88 14.78Q129.49 14.78 129.91 14.58L129.91 14.58L129.91 14.58Q130.34 14.38 130.61 14.04L130.61 14.04L130.61 14.04Q130.89 13.69 131.02 13.25L131.02 13.25L131.02 13.25Q131.15 12.81 131.15 12.32L131.15 12.32L131.15 12.15L132.33 12.15L132.33 12.32L132.33 12.32Q132.33 13.06 132.10 13.71L132.10 13.71L132.10 13.71Q131.88 14.36 131.45 14.85L131.45 14.85L131.45 14.85Q131.01 15.33 130.37 15.60L130.37 15.60L130.37 15.60Q129.72 15.88 128.88 15.88L128.88 15.88L128.88 15.88Q127.26 15.88 126.35 14.85L126.35 14.85L126.35 14.85Q125.44 13.83 125.44 11.87L125.44 11.87L125.44 9.69L125.44 9.69Q125.44 7.78 126.35 6.73L126.35 6.73L126.35 6.73Q127.26 5.68 128.88 5.68L128.88 5.68L128.88 5.68Q129.72 5.68 130.37 5.96L130.37 5.96L130.37 5.96Q131.01 6.23 131.45 6.71L131.45 6.71L131.45 6.71Q131.88 7.20 132.10 7.85L132.10 7.85L132.10 7.85Q132.33 8.50 132.33 9.24L132.33 9.24L132.33 9.41L131.15 9.41L131.15 9.24L131.15 9.24Q131.14 8.76 131.00 8.32L131.00 8.32L131.00 8.32Q130.87 7.87 130.60 7.53L130.60 7.53L130.60 7.53Q130.33 7.18 129.91 6.98L129.91 6.98L129.91 6.98Q129.49 6.78 128.88 6.78L128.88 6.78L128.88 6.78Q127.75 6.78 127.18 7.60L127.18 7.60L127.18 7.60Q126.62 8.43 126.62 9.77L126.62 9.77L126.62 11.79L126.62 11.79Q126.62 13.23 127.18 14.01L127.18 14.01L127.18 14.01Q127.75 14.78 128.88 14.78ZM140.95 11.87L140.95 9.69L140.95 9.69Q140.95 7.78 141.86 6.73L141.86 6.73L141.86 6.73Q142.77 5.68 144.40 5.68L144.40 5.68L144.40 5.68Q146.02 5.68 146.93 6.73L146.93 6.73L146.93 6.73Q147.84 7.78 147.84 9.69L147.84 9.69L147.84 11.87L147.84 11.87Q147.84 13.83 146.93 14.85L146.93 14.85L146.93 14.85Q146.02 15.88 144.40 15.88L144.40 15.88L144.40 15.88Q142.77 15.88 141.86 14.85L141.86 14.85L141.86 14.85Q140.95 13.83 140.95 11.87L140.95 11.87ZM144.40 14.78L144.40 14.78L144.40 14.78Q145.53 14.78 146.10 14.01L146.10 14.01L146.10 14.01Q146.66 13.23 146.66 11.79L146.66 11.79L146.66 9.77L146.66 9.77Q146.66 8.43 146.10 7.60L146.10 7.60L146.10 7.60Q145.53 6.78 144.40 6.78L144.40 6.78L144.40 6.78Q143.26 6.78 142.69 7.60L142.69 7.60L142.69 7.60Q142.13 8.43 142.13 9.77L142.13 9.77L142.13 11.79L142.13 11.79Q142.13 13.23 142.69 14.01L142.69 14.01L142.69 14.01Q143.26 14.78 144.40 14.78ZM156.70 6.97L156.70 5.88L159.92 5.88L159.92 5.88Q161.74 5.88 162.58 6.75L162.58 6.75L162.58 6.75Q163.42 7.62 163.42 9.52L163.42 9.52L163.42 12.04L163.42 12.04Q163.42 13.94 162.58 14.81L162.58 14.81L162.58 14.81Q161.74 15.68 159.92 15.68L159.92 15.68L156.70 15.68L156.70 14.57L157.54 14.57L157.54 6.97L156.70 6.97ZM158.72 14.59L159.75 14.59L159.75 14.59Q160.40 14.59 160.87 14.46L160.87 14.46L160.87 14.46Q161.34 14.34 161.64 14.04L161.64 14.04L161.64 14.04Q161.95 13.73 162.10 13.23L162.10 13.23L162.10 13.23Q162.25 12.73 162.25 11.96L162.25 11.96L162.25 9.60L162.25 9.60Q162.25 8.83 162.10 8.33L162.10 8.33L162.10 8.33Q161.95 7.83 161.64 7.53L161.64 7.53L161.64 7.53Q161.34 7.22 160.87 7.10L160.87 7.10L160.87 7.10Q160.40 6.97 159.75 6.97L159.75 6.97L158.72 6.97L158.72 14.59ZM172.56 15.68L172.56 5.88L178.50 5.88L178.50 6.97L173.74 6.97L173.74 10.22L178.42 10.22L178.42 11.31L173.74 11.31L173.74 14.59L178.58 14.59L178.58 15.68L172.56 15.68ZM205.69 14.90L205.69 14.90L205.69 14.90Q205.69 14.49 205.98 14.20L205.98 14.20L205.98 14.20Q206.26 13.92 206.67 13.92L206.67 13.92L206.67 13.92Q207.07 13.92 207.36 14.20L207.36 14.20L207.36 14.20Q207.65 14.49 207.65 14.90L207.65 14.90L207.65 16.27L207.65 16.27Q207.65 16.74 207.35 17.05L207.35 17.05L207.35 17.05Q207.05 17.36 206.57 17.36L206.57 17.36L205.86 17.36L205.86 16.60L206.51 16.60L206.51 16.60Q206.89 16.60 206.89 16.18L206.89 16.18L206.89 15.83L206.89 15.83Q206.78 15.88 206.65 15.88L206.65 15.88L206.65 15.88Q206.26 15.88 205.98 15.59L205.98 15.59L205.98 15.59Q205.69 15.30 205.69 14.90ZM234.54 6.97L234.54 5.88L237.76 5.88L237.76 5.88Q239.58 5.88 240.42 6.75L240.42 6.75L240.42 6.75Q241.26 7.62 241.26 9.52L241.26 9.52L241.26 12.04L241.26 12.04Q241.26 13.94 240.42 14.81L240.42 14.81L240.42 14.81Q239.58 15.68 237.76 15.68L237.76 15.68L234.54 15.68L234.54 14.57L235.38 14.57L235.38 6.97L234.54 6.97ZM236.56 14.59L237.59 14.59L237.59 14.59Q238.24 14.59 238.71 14.46L238.71 14.46L238.71 14.46Q239.18 14.34 239.48 14.04L239.48 14.04L239.48 14.04Q239.79 13.73 239.94 13.23L239.94 13.23L239.94 13.23Q240.09 12.73 240.09 11.96L240.09 11.96L240.09 9.60L240.09 9.60Q240.09 8.83 239.94 8.33L239.94 8.33L239.94 8.33Q239.79 7.83 239.48 7.53L239.48 7.53L239.48 7.53Q239.18 7.22 238.71 7.10L238.71 7.10L238.71 7.10Q238.24 6.97 237.59 6.97L237.59 6.97L236.56 6.97L236.56 14.59ZM250.40 15.68L250.40 5.88L256.34 5.88L256.34 6.97L251.58 6.97L251.58 10.22L256.26 10.22L256.26 11.31L251.58 11.31L251.58 14.59L256.42 14.59L256.42 15.68L250.40 15.68ZM269.35 11.65L267.02 11.65L267.02 15.68L265.85 15.68L265.85 5.88L269.35 5.88L269.35 5.88Q270.10 5.88 270.66 6.10L270.66 6.10L270.66 6.10Q271.22 6.31 271.59 6.68L271.59 6.68L271.59 6.68Q271.96 7.04 272.15 7.53L272.15 7.53L272.15 7.53Q272.34 8.01 272.34 8.54L272.34 8.54L272.34 8.96L272.34 8.96Q272.34 9.49 272.15 9.98L272.15 9.98L272.15 9.98Q271.96 10.47 271.59 10.84L271.59 10.84L271.59 10.84Q271.21 11.21 270.65 11.43L270.65 11.43L270.65 11.43Q270.09 11.65 269.35 11.65L269.35 11.65ZM267.02 6.97L267.02 10.56L269.21 10.56L269.21 10.56Q271.17 10.56 271.17 8.88L271.17 8.88L271.17 8.62L271.17 8.62Q271.17 7.88 270.68 7.43L270.68 7.43L270.68 7.43Q270.20 6.97 269.21 6.97L269.21 6.97L267.02 6.97ZM281.44 15.68L281.44 5.88L282.62 5.88L282.62 14.59L287.74 14.59L287.74 15.68L281.44 15.68ZM296.63 11.87L296.63 9.69L296.63 9.69Q296.63 7.78 297.54 6.73L297.54 6.73L297.54 6.73Q298.45 5.68 300.08 5.68L300.08 5.68L300.08 5.68Q301.70 5.68 302.61 6.73L302.61 6.73L302.61 6.73Q303.52 7.78 303.52 9.69L303.52 9.69L303.52 11.87L303.52 11.87Q303.52 13.83 302.61 14.85L302.61 14.85L302.61 14.85Q301.70 15.88 300.08 15.88L300.08 15.88L300.08 15.88Q298.45 15.88 297.54 14.85L297.54 14.85L297.54 14.85Q296.63 13.83 296.63 11.87L296.63 11.87ZM300.08 14.78L300.08 14.78L300.08 14.78Q301.21 14.78 301.78 14.01L301.78 14.01L301.78 14.01Q302.34 13.23 302.34 11.79L302.34 11.79L302.34 9.77L302.34 9.77Q302.34 8.43 301.78 7.60L301.78 7.60L301.78 7.60Q301.21 6.78 300.08 6.78L300.08 6.78L300.08 6.78Q298.94 6.78 298.38 7.60L298.38 7.60L298.38 7.60Q297.81 8.43 297.81 9.77L297.81 9.77L297.81 11.79L297.81 11.79Q297.81 13.23 298.38 14.01L298.38 14.01L298.38 14.01Q298.94 14.78 300.08 14.78ZM315.06 15.68L315.06 12.24L314.80 12.24L311.74 5.88L313.05 5.88L315.56 11.23L315.73 11.23L318.23 5.88L319.55 5.88L316.48 12.24L316.23 12.24L316.23 15.68L315.06 15.68Z"></path></g></svg>