<svg data-v-423bf9ae="" xmlns="http://www.w3.org/2000/svg" viewBox="0 0 319.2419836907789 60" class="font"><!----><!----><!----><g data-v-423bf9ae="" id="30867e92-45d4-4c84-9d2d-372ffb43510c" fill="white" transform="matrix(5.830903811703725,0,0,5.830903811703725,-1.3994121021679007,-12.6530621930969)"><path d="M2.62 12.29L2.62 4.28L0.24 4.28L0.24 2.69L6.79 2.69L6.79 4.28L4.41 4.28L4.41 12.29L2.62 12.29ZM9.06 12.46L9.06 12.46Q8.37 12.46 7.79 11.99L7.79 11.99L7.79 11.99Q7.21 11.52 7.21 10.39L7.21 10.39L7.21 10.39Q7.21 8.99 8.16 8.40L8.16 8.40L8.16 8.40Q9.11 7.81 10.86 7.81L10.86 7.81L10.86 7.04L10.86 7.04Q10.86 6.61 10.70 6.37L10.70 6.37L10.70 6.37Q10.54 6.13 10.09 6.13L10.09 6.13L10.09 6.13Q9.63 6.13 9.42 6.36L9.42 6.36L9.42 6.36Q9.21 6.59 9.21 6.90L9.21 6.90L9.21 7.11L7.57 7.11L7.57 7.11Q7.56 7.03 7.56 6.80L7.56 6.80L7.56 6.80Q7.56 5.88 8.24 5.32L8.24 5.32L8.24 5.32Q8.92 4.76 10.05 4.76L10.05 4.76L10.05 4.76Q11.31 4.76 11.94 5.32L11.94 5.32L11.94 5.32Q12.56 5.88 12.56 6.93L12.56 6.93L12.56 10.56L12.56 10.56Q12.56 10.81 12.67 10.93L12.67 10.93L12.67 10.93Q12.78 11.05 12.95 11.05L12.95 11.05L13.29 11.05L13.29 12.24L13.29 12.24Q12.87 12.46 12.29 12.46L12.29 12.46L12.29 12.46Q11.80 12.46 11.46 12.20L11.46 12.20L11.46 12.20Q11.12 11.94 10.99 11.49L10.99 11.49L10.92 11.49L10.92 11.49Q10.57 11.98 10.16 12.22L10.16 12.22L10.16 12.22Q9.74 12.46 9.06 12.46L9.06 12.46ZM9.76 11.06L9.76 11.06Q10.32 11.06 10.59 10.61L10.59 10.61L10.59 10.61Q10.86 10.16 10.86 9.45L10.86 9.45L10.86 9.03L10.86 9.03Q10.01 9.03 9.47 9.30L9.47 9.30L9.47 9.30Q8.93 9.58 8.93 10.23L8.93 10.23L8.93 10.23Q8.93 10.63 9.13 10.84L9.13 10.84L9.13 10.84Q9.34 11.06 9.76 11.06L9.76 11.06ZM14.17 12.29L14.17 4.93L15.57 4.93L15.74 5.84L15.82 5.84L15.82 5.84Q16.14 5.36 16.60 5.06L16.60 5.06L16.60 5.06Q17.07 4.76 17.68 4.76L17.68 4.76L17.68 4.76Q18.59 4.76 19.12 5.33L19.12 5.33L19.12 5.33Q19.64 5.89 19.64 7.13L19.64 7.13L19.64 12.29L17.96 12.29L17.96 7.59L17.96 7.59Q17.96 6.90 17.72 6.59L17.72 6.59L17.72 6.59Q17.47 6.29 17.00 6.29L17.00 6.29L17.00 6.29Q16.51 6.29 16.18 6.71L16.18 6.71L16.18 6.71Q15.85 7.14 15.85 7.76L15.85 7.76L15.85 12.29L14.17 12.29ZM24.71 12.46L24.71 12.46Q22.86 12.46 21.88 11.22L21.88 11.22L21.88 11.22Q20.89 9.98 20.89 7.49L20.89 7.49L20.89 7.49Q20.89 5.00 21.88 3.76L21.88 3.76L21.88 3.76Q22.86 2.52 24.71 2.52L24.71 2.52L24.71 2.52Q26.29 2.52 27.27 3.46L27.27 3.46L27.27 3.46Q28.24 4.40 28.24 6.26L28.24 6.26L26.40 6.26L26.40 6.26Q26.40 5.18 25.95 4.62L25.95 4.62L25.95 4.62Q25.49 4.06 24.71 4.06L24.71 4.06L24.71 4.06Q23.73 4.06 23.23 4.86L23.23 4.86L23.23 4.86Q22.74 5.67 22.74 7.14L22.74 7.14L22.74 7.84L22.74 7.84Q22.74 9.31 23.25 10.12L23.25 10.12L23.25 10.12Q23.76 10.92 24.77 10.92L24.77 10.92L24.77 10.92Q25.56 10.92 26.03 10.37L26.03 10.37L26.03 10.37Q26.49 9.81 26.49 8.74L26.49 8.74L28.24 8.74L28.24 8.74Q28.24 10.56 27.27 11.51L27.27 11.51L27.27 11.51Q26.31 12.46 24.71 12.46L24.71 12.46ZM32.21 12.46L32.21 12.46Q30.73 12.46 30.00 11.52L30.00 11.52L30.00 11.52Q29.27 10.58 29.27 8.61L29.27 8.61L29.27 8.61Q29.27 6.64 30.00 5.70L30.00 5.70L30.00 5.70Q30.73 4.76 32.21 4.76L32.21 4.76L32.21 4.76Q33.70 4.76 34.43 5.70L34.43 5.70L34.43 5.70Q35.15 6.64 35.15 8.61L35.15 8.61L35.15 8.61Q35.15 10.58 34.43 11.52L34.43 11.52L34.43 11.52Q33.70 12.46 32.21 12.46L32.21 12.46ZM32.21 11.05L32.21 11.05Q32.84 11.05 33.12 10.51L33.12 10.51L33.12 10.51Q33.40 9.97 33.40 8.88L33.40 8.88L33.40 8.34L33.40 8.34Q33.40 7.25 33.12 6.71L33.12 6.71L33.12 6.71Q32.84 6.17 32.21 6.17L32.21 6.17L32.21 6.17Q31.58 6.17 31.30 6.71L31.30 6.71L31.30 6.71Q31.02 7.25 31.02 8.34L31.02 8.34L31.02 8.88L31.02 8.88Q31.02 9.97 31.30 10.51L31.30 10.51L31.30 10.51Q31.58 11.05 32.21 11.05L32.21 11.05ZM38.65 12.46L38.65 12.46Q37.53 12.46 36.91 11.50L36.91 11.50L36.91 11.50Q36.29 10.54 36.29 8.60L36.29 8.60L36.29 8.60Q36.29 6.68 36.91 5.72L36.91 5.72L36.91 5.72Q37.53 4.76 38.57 4.76L38.57 4.76L38.57 4.76Q39.13 4.76 39.57 5.00L39.57 5.00L39.57 5.00Q40.01 5.25 40.21 5.68L40.21 5.68L40.28 5.68L40.28 2.17L41.96 2.17L41.96 12.29L40.56 12.29L40.39 11.38L40.32 11.38L40.32 11.38Q40.05 11.91 39.62 12.19L39.62 12.19L39.62 12.19Q39.19 12.46 38.65 12.46L38.65 12.46ZM39.16 10.93L39.16 10.93Q39.75 10.93 40.01 10.42L40.01 10.42L40.01 10.42Q40.28 9.91 40.28 8.88L40.28 8.88L40.28 8.37L40.28 8.37Q40.28 7.34 40.01 6.81L40.01 6.81L40.01 6.81Q39.75 6.29 39.16 6.29L39.16 6.29L39.16 6.29Q38.57 6.29 38.30 6.80L38.30 6.80L38.30 6.80Q38.04 7.31 38.04 8.34L38.04 8.34L38.04 8.88L38.04 8.88Q38.04 9.91 38.30 10.42L38.30 10.42L38.30 10.42Q38.57 10.93 39.16 10.93L39.16 10.93ZM46.05 12.46L46.05 12.46Q44.60 12.46 43.88 11.52L43.88 11.52L43.88 11.52Q43.16 10.57 43.16 8.61L43.16 8.61L43.16 8.61Q43.16 4.76 45.99 4.76L45.99 4.76L45.99 4.76Q47.33 4.76 47.99 5.70L47.99 5.70L47.99 5.70Q48.65 6.64 48.65 8.61L48.65 8.61L48.65 9.03L44.91 9.03L44.91 9.03Q44.93 10.07 45.19 10.58L45.19 10.58L45.19 10.58Q45.44 11.09 46.05 11.09L46.05 11.09L46.05 11.09Q46.48 11.09 46.73 10.72L46.73 10.72L46.73 10.72Q46.98 10.35 46.98 9.69L46.98 9.69L48.65 9.69L48.65 9.69Q48.65 11.06 47.94 11.76L47.94 11.76L47.94 11.76Q47.22 12.46 46.05 12.46L46.05 12.46ZM44.93 7.81L46.89 7.81L46.89 7.81Q46.89 6.13 45.99 6.13L45.99 6.13L45.99 6.13Q45.47 6.13 45.22 6.56L45.22 6.56L45.22 6.56Q44.97 6.99 44.93 7.81L44.93 7.81ZM52.25 12.46L52.25 12.46Q50.99 12.46 50.28 11.82L50.28 11.82L50.28 11.82Q49.57 11.19 49.57 10.12L49.57 10.12L49.59 9.95L51.30 9.95L51.30 10.05L51.30 10.05Q51.31 10.60 51.60 10.84L51.60 10.84L51.60 10.84Q51.90 11.09 52.30 11.09L52.30 11.09L52.30 11.09Q52.70 11.09 52.99 10.90L52.99 10.90L52.99 10.90Q53.28 10.71 53.28 10.29L53.28 10.29L53.28 10.29Q53.28 9.84 52.95 9.64L52.95 9.64L52.95 9.64Q52.61 9.44 51.88 9.24L51.88 9.24L51.88 9.24Q51.18 9.04 50.75 8.85L50.75 8.85L50.75 8.85Q50.32 8.65 50.00 8.20L50.00 8.20L50.00 8.20Q49.69 7.76 49.69 7L49.69 7L49.69 7Q49.69 5.92 50.42 5.34L50.42 5.34L50.42 5.34Q51.16 4.76 52.32 4.76L52.32 4.76L52.32 4.76Q53.40 4.76 54.10 5.30L54.10 5.30L54.10 5.30Q54.81 5.84 54.81 6.76L54.81 6.76L54.80 7.08L53.09 7.08L53.09 7.06L53.09 7.06Q53.07 6.13 52.26 6.13L52.26 6.13L52.26 6.13Q51.87 6.13 51.63 6.33L51.63 6.33L51.63 6.33Q51.39 6.52 51.39 6.86L51.39 6.86L51.39 6.86Q51.39 7.25 51.72 7.43L51.72 7.43L51.72 7.43Q52.04 7.60 52.72 7.78L52.72 7.78L52.72 7.78Q53.44 7.97 53.89 8.17L53.89 8.17L53.89 8.17Q54.33 8.37 54.66 8.83L54.66 8.83L54.66 8.83Q54.99 9.28 54.99 10.08L54.99 10.08L54.99 10.08Q54.99 12.46 52.25 12.46L52.25 12.46Z"></path></g><!----><!----></svg>